<svg class="logo" onclick="this.classList.toggle('hide');" width="512" height="512" viewBox="0 0 60 60" version="1.1" baseProfile="full" xmlns="http://www.w3.org/2000/svg">
  <style>
    .logo{overflow: visible;}.logo *{transition:all 1s cubic-bezier(0.61, -0.34, 0.35, 1.3);transform-origin:50% 50%;}.leftClip{transform: rotate(45deg);transform-origin: 100% 50%;}.rightClip{transform: rotate(45deg);transform-origin: 0% 50%;}.hide .eyeDash{transform: rotate(-45deg);}.hide .leftClip{transform: rotate(0deg);}.hide .rightClip{transform: rotate(0deg);}.hide .leftGroup *{transform: translateX(35px);}.hide .rightGroup *{transform: translateX(-35px);}
  </style>
  <g class="leftGroup">
    <path class="eyeLeft" d="m 9.3282819,39.225205 c 1.3480001,1.348 2.8260001,2.564 4.3940001,3.616 0.458,0.307 1.080999,0.185 1.388,-0.273 0.307999,-0.458 0.184999,-1.08 -0.273,-1.388 -1.46,-0.979 -2.838,-2.113 -4.094,-3.369 L 3.3452819,30.413204 10.974282,22.784205 c 7.385,-7.385 18.513,-9.882001 28.352,-6.356 0.52,0.186999 1.093,-0.084 1.279,-0.604 0.186,-0.520001 -0.084,-1.092001 -0.604,-1.279 -3.182,-1.14 -6.49,-1.693 -9.776,-1.693 -7.621,0 -15.124,2.976999 -20.6650001,8.517999 l -9.04299997,9.043 8.81099997,8.812001 z"/>
    <path class="irisLeft" d="m 31.00775,18.774 c 2.065,0 4.089,0.553 5.855,1.6 0.474,0.281 1.088,0.125 1.37,-0.351 0.281,-0.475 0.125,-1.088 -0.351,-1.37 -2.074,-1.229 -4.451,-1.879 -6.875,-1.879 -7.444,0 -13.5,6.056 -13.5,13.5 0,2.084 0.462,4.083 1.374,5.941 0.174,0.354 0.529,0.56 0.899,0.56 0.147,0 0.298,-0.033 0.439,-0.102 0.496,-0.244 0.701,-0.843 0.458,-1.338 -0.776,-1.582 -1.17,-3.284 -1.17,-5.06 0.001,-6.342 5.16,-11.501 11.501,-11.501 z"/>
  </g>
  <path class="eyeDash" d="M 51.085601,9.5712003 C 50.694602,9.1802007 50.115418,9.1273832 49.789771,9.4530305 L 11.061905,48.180896 c -0.325646,0.325647 -0.27283,0.904831 0.11817,1.295831 0.195,0.195 0.437797,0.306204 0.672403,0.327597 0.234606,0.02139 0.461021,-0.04702 0.623427,-0.209428 L 51.203771,10.86703 c 0.325731,-0.32473 0.272831,-0.9048293 -0.11817,-1.2958297 z"/>
  <g class="rightGroup">
    <path class="irisRight" d="m 31.00775,41.774 c -2.153,0 -4.251,-0.598 -6.07,-1.73 -0.467,-0.29 -1.084,-0.148 -1.377,0.321 -0.292,0.469 -0.148,1.085 0.321,1.377 2.135,1.33 4.6,2.032 7.126,2.032 7.444,0 13.5,-6.056 13.5,-13.5 0,-2.685 -0.787,-5.279 -2.275,-7.502 -0.308,-0.459 -0.93,-0.582 -1.387,-0.275 -0.459,0.308 -0.582,0.929 -0.275,1.387 1.267,1.893 1.937,4.102 1.937,6.39 0,6.342 -5.159,11.5 -11.5,11.5 z"/>
    <path class="eyeRight" d="m 50.70575,21.325 c -1.348,-1.348 -2.826,-2.564 -4.394,-3.616 -0.458,-0.307 -1.081,-0.185 -1.388,0.273 -0.308,0.458 -0.185,1.08 0.273,1.388 1.46,0.979 2.838,2.113 4.094,3.369 l 7.398,7.398 -7.629,7.629 c -7.385,7.385 -18.513,9.882 -28.352,6.356 -0.52,-0.187 -1.093,0.084 -1.279,0.604 -0.186,0.52 0.084,1.092 0.604,1.279 3.182,1.14 6.49,1.693 9.776,1.693 7.621,0 15.124,-2.977 20.665,-8.518 l 9.043,-9.043 -8.811,-8.812 z"/>
  </g>
  <clipPath id="leftClip" class="leftClip">
    <rect width="200" height="200" x="-168" y="-70"/>
  </clipPath>
  <clipPath id="rightClip" class="rightClip">
    <rect width="200" height="200" x="30" y="-70"/>
  </clipPath>
  <script>
    //<![CDATA[
    var c=document.querySelectorAll(".logo");function d(f,b){var a=Math.random()+"";b.getElementById("leftClip").id=a;b.getElementsByClassName("leftGroup")[0].setAttribute("clip-path","url(#"+a+")");a=Math.random()+"";b.getElementById("rightClip").id=a;b.getElementsByClassName("rightGroup")[0].setAttribute("clip-path","url(#"+a+")")}for(var e=0;e<c.length;e++)d.call(void 0,0,c[e]);
    //]]>
  </script>
</svg>
