<?xml version="1.0" encoding="UTF-8" ?>
<!DOCTYPE svg PUBLIC "-//W3C//DTD SVG 1.1//EN" "http://www.w3.org/Graphics/SVG/1.1/DTD/svg11.dtd">
<svg width="512pt" height="512pt" viewBox="0 0 512 512" version="1.1" xmlns="http://www.w3.org/2000/svg">
<g id="#000000ff">
<path fill="#000000" opacity="1.00" d=" M 465.26 46.38 C 473.33 43.45 480.38 55.09 473.76 60.77 C 339.68 195.02 205.44 329.11 71.30 463.31 C 67.76 467.82 60.30 467.99 57.11 463.01 C 54.49 459.51 55.39 454.40 58.63 451.62 C 192.80 317.46 326.96 183.30 461.12 49.13 C 462.32 47.99 463.65 46.89 465.26 46.38 Z" />
<path fill="#000000" opacity="1.00" d=" M 228.92 112.32 C 265.24 108.42 302.37 112.50 337.04 123.95 C 341.98 125.48 344.98 131.78 342.27 136.39 C 340.08 140.45 334.88 142.09 330.66 140.33 C 280.18 123.31 223.87 124.17 174.00 143.00 C 142.58 154.73 113.81 173.39 90.12 197.12 C 68.19 219.07 46.20 240.96 24.33 262.97 C 46.22 284.98 68.31 306.80 90.12 328.90 C 96.08 335.66 103.29 341.10 110.11 346.91 C 115.90 353.19 107.66 364.49 99.91 360.16 C 87.02 351.72 76.55 340.13 65.59 329.40 C 43.72 307.54 21.88 285.67 0.00 263.82 L 0.00 263.78 C 25.06 238.58 49.96 213.22 74.99 187.99 C 115.43 145.89 170.78 118.35 228.92 112.32 Z" />
<path fill="#000000" opacity="1.00" d=" M 253.35 145.49 C 278.42 143.02 304.18 149.24 325.68 162.26 C 333.87 167.66 326.20 181.53 317.26 177.63 C 299.79 168.09 279.99 162.14 259.94 163.27 C 226.55 164.56 194.66 184.03 178.09 213.02 C 161.90 240.47 160.53 275.95 174.50 304.58 C 176.61 308.21 176.52 313.32 173.16 316.18 C 169.43 320.04 162.36 318.83 160.09 313.97 C 148.74 292.02 144.96 266.30 149.30 241.99 C 157.54 191.46 202.30 149.84 253.35 145.49 Z" />
<path fill="#000000" opacity="1.00" d=" M 386.64 167.31 C 379.36 161.54 387.57 148.36 396.01 152.94 C 414.31 163.60 429.62 178.60 444.31 193.68 C 466.89 216.65 489.14 239.95 512.00 262.63 L 512.00 262.86 C 491.94 283.17 471.63 303.24 451.48 323.48 C 441.74 333.06 432.39 343.07 422.00 351.98 C 381.95 386.78 330.88 408.66 278.06 413.66 C 240.86 417.17 202.77 412.20 167.75 399.23 C 159.04 394.59 165.38 380.23 174.67 383.43 C 227.54 402.20 287.01 401.59 339.37 381.35 C 370.45 369.50 398.94 350.97 422.38 327.39 C 444.15 305.60 465.98 283.88 487.69 262.03 C 465.89 240.26 444.15 218.43 422.31 196.70 C 411.37 185.80 399.32 176.10 386.64 167.31 Z" />
<path fill="#000000" opacity="1.00" d=" M 350.39 194.52 C 353.96 192.97 358.53 194.04 360.65 197.43 C 380.44 225.68 386.10 263.08 376.10 296.05 C 365.65 331.59 337.37 361.25 302.39 373.43 C 269.71 385.20 231.83 381.03 202.36 362.74 C 198.12 360.01 196.84 353.24 200.52 349.55 C 203.63 346.30 208.94 345.90 212.59 348.48 C 241.46 365.81 279.21 367.59 309.27 352.19 C 336.39 338.83 356.46 312.10 361.40 282.24 C 365.29 256.93 361.27 229.71 346.79 208.20 C 343.20 203.80 344.74 196.31 350.39 194.52 Z" />
</g>
</svg>
